<svg xmlns="http://www.w3.org/2000/svg" viewBox="0 0 1040 312" width="1040" height="312" font-family="&#39;Inter&#39;, ui-sans-serif, system-ui, sans-serif">
  <defs>
    <marker id="arr" markerWidth="9" markerHeight="9" refX="6" refY="3" orient="auto">
      <path d="M0,0 L0,6 L8,3 z" fill="#3a4663"></path>
    </marker>
    <marker id="arr-green" markerWidth="9" markerHeight="9" refX="6" refY="3" orient="auto">
      <path d="M0,0 L0,6 L8,3 z" fill="#4ade80"></path>
    </marker>
  </defs>

  <rect x="0.5" y="0.5" width="1039" height="311" rx="16" fill="#0b1120" stroke="#1b2740"></rect>

  <line x1="205" y1="150" x2="251" y2="150" stroke="#3a4663" stroke-width="1.6" marker-end="url(#arr)"></line>
  <line x1="430" y1="150" x2="476" y2="150" stroke="#3a4663" stroke-width="1.6" marker-end="url(#arr)"></line>

  <path d="M665 134 C742 134 742 44 816 44" fill="none" stroke="#4ade80" stroke-width="1.8" marker-end="url(#arr-green)"></path>
  <path d="M665 152 L816 150" fill="none" stroke="#3a4663" stroke-width="1.6" stroke-dasharray="5,4" marker-end="url(#arr)"></path>
  <path d="M665 170 C742 170 742 256 816 256" fill="none" stroke="#3a4663" stroke-width="1.6" stroke-dasharray="5,4" marker-end="url(#arr)"></path>

  <rect x="30" y="118" width="175" height="64" rx="11" fill="#131c30" stroke="#76b900" stroke-width="1.5"></rect>
  <text x="117" y="145" text-anchor="middle" fill="#a3e635" font-size="14" font-weight="700">Capture</text>
  <text x="117" y="163" text-anchor="middle" fill="#93a4c0" font-size="11.5">NVIDIA · OBS · ReLive</text>

  <rect x="255" y="118" width="175" height="64" rx="11" fill="#131c30" stroke="#2b9cd8" stroke-width="1.5"></rect>
  <text x="342" y="145" text-anchor="middle" fill="#5cc0f0" font-size="14" font-weight="700">Sync</text>
  <text x="342" y="163" text-anchor="middle" fill="#93a4c0" font-size="11.5">Syncthing, rsync, …</text>

  <rect x="480" y="118" width="185" height="64" rx="11" fill="#101d22" stroke="#4ade80" stroke-width="1.8"></rect>
  <text x="572" y="145" text-anchor="middle" fill="#4ade80" font-size="14.5" font-weight="700">ReplayTagger</text>
  <text x="572" y="163" text-anchor="middle" fill="#cbd6ea" font-size="11.5">tags genre · watches folder</text>

  <rect x="816" y="12" width="195" height="64" rx="11" fill="#131c30" stroke="#e5a00d" stroke-width="1.5"></rect>
  <text x="913" y="39" text-anchor="middle" fill="#e5a00d" font-size="14" font-weight="700">Plex</text>
  <text x="913" y="57" text-anchor="middle" fill="#93a4c0" font-size="11.5">per-game collections</text>

  <rect x="816" y="118" width="195" height="64" rx="11" fill="#131c30" stroke="#ef4444" stroke-width="1.5"></rect>
  <text x="913" y="145" text-anchor="middle" fill="#f87171" font-size="14" font-weight="700">YouTube</text>
  <text x="913" y="163" text-anchor="middle" fill="#93a4c0" font-size="11.5">optional archive</text>

  <rect x="816" y="224" width="195" height="64" rx="11" fill="#131c30" stroke="#5865f2" stroke-width="1.5"></rect>
  <text x="913" y="251" text-anchor="middle" fill="#8b95f7" font-size="14" font-weight="700">Notifications</text>
  <text x="913" y="269" text-anchor="middle" fill="#93a4c0" font-size="11.5">Discord · ntfy · webhook</text>

  <text x="117" y="201" text-anchor="middle" fill="#94a3b8" font-size="12" font-weight="500">clips saved per-game</text>
  <text x="342" y="201" text-anchor="middle" fill="#94a3b8" font-size="12" font-weight="500">delivered to your server</text>
  <text x="572" y="201" text-anchor="middle" fill="#94a3b8" font-size="12" font-weight="500">runs on your Docker host</text>

  <text x="725" y="73" text-anchor="middle" fill="#94a3b8" font-size="11" font-style="italic">primary</text>
  <text x="752" y="135" text-anchor="middle" fill="#94a3b8" font-size="11" font-style="italic">optional</text>
  <text x="760" y="197" text-anchor="middle" fill="#94a3b8" font-size="11" font-style="italic">optional</text>
</svg>
